<svg id="SvgjsSvg1001" width="288" height="288" xmlns="http://www.w3.org/2000/svg" version="1.1" xmlns:xlink="http://www.w3.org/1999/xlink" xmlns:svgjs="http://svgjs.com/svgjs"><defs id="SvgjsDefs1002"></defs><g id="SvgjsG1008"><svg xmlns="http://www.w3.org/2000/svg" viewBox="-18 -20 156 120" width="288" height="288"><defs><linearGradient id="a" x1="0" x2="97.98" y1="27.217" y2="70.763" gradientTransform="scale(1.22474 .8165)" gradientUnits="userSpaceOnUse"><stop offset="0%" stop-color="#00c6ff" class="stopColorFF4C1D svgShape"></stop><stop offset="100%" stop-color="#3f4eb9" class="stopColor9B0063 svgShape"></stop></linearGradient></defs><path fill="url(#a)" fill-rule="evenodd" d="M1.0086 23.3414A2.4077 2.4077 0 000 25.2902v.03c.0029.3178.0686.64.2043.9465L11.69 52.2882c.5086 1.1534 1.8214 1.7179 3.0114 1.296 7.52-2.6816 33.5615-11.1654 50.4143-6.5892 0 0-16.9057.978-32.1928 12.9658-.8615.6772-1.1486 1.8547-.7072 2.8555 1.2414 2.8042 3.7329 8.441 5.1429 11.6272l1.98 4.6446c.4714 1.102 1.9771 1.2346 2.6414.2367 3.5671-5.3717 9.5814-8.0547 15.3586-10.397 5.9185-2.3978 12.0943-4.187 18.3943-5.2519 6.7128-1.1347 13.5671-1.4384 20.3514-.8382 1.13.0998 2.1786-.593 2.5157-1.6737l5.1886-16.5826c.3057-.9808-.0457-2.0528-.88-2.6559-5.7857-4.1912-28.7043-18.269-69.0072-12.6137 0 0 34.3915-19.756 78.0529 1.946 1.3228.6586 2.92-.0328 3.3614-1.4385l4.5743-14.6238a2.419 2.419 0 00.11-.6829v-.0698c-.0129-.8326-.4586-1.6224-1.2157-2.0515C113.3043 9.2907 94.7514 0 69.23 0 49.6686-.0014 26.0157 5.4558 1.0086 23.3414"></path></svg></g></svg>