<?xml version="1.0" encoding="utf-8"?>
<!-- Generator: Adobe Illustrator 17.0.0, SVG Export Plug-In . SVG Version: 6.00 Build 0)  -->
<!DOCTYPE svg PUBLIC "-//W3C//DTD SVG 1.1//EN" "http://www.w3.org/Graphics/SVG/1.1/DTD/svg11.dtd">
<svg version="1.1" id="Layer_1" xmlns:sketch="http://www.bohemiancoding.com/sketch/ns"
	 xmlns="http://www.w3.org/2000/svg" xmlns:xlink="http://www.w3.org/1999/xlink" x="0px" y="0px" width="57px" height="64px"
	 viewBox="0 0 57 64" enable-background="new 0 0 57 64" xml:space="preserve">
<title>Stack</title>
<desc>Created with Sketch.</desc>
<g id="Page-1" sketch:type="MSPage">
	<g id="Stack" transform="translate(2.000000, 1.000000)" sketch:type="MSLayerGroup">
		<path id="Shape_3_" sketch:type="MSShapeGroup" fill="none" stroke="#6B6C6E" stroke-width="2" d="M48.9,39.3l4.2,2.5
			c0.9,0.9,0.9,2.4,0,3.3L28.5,61.3c-0.9,0.9-2.4,0.9-3.3,0L0.6,45.1c-0.9-0.9-0.9-2.4,0-3.3l4.2-2.5"/>
		<path id="Shape_2_" sketch:type="MSShapeGroup" fill="none" stroke="#6B6C6E" stroke-width="2" d="M48.9,30.6l4.2,2.5
			c0.9,0.9,0.9,2.4,0,3.3L28.5,52.6c-0.9,0.9-2.4,0.9-3.3,0L0.6,36.4c-0.9-0.9-0.9-2.4,0-3.3l4.2-2.5"/>
		<path id="Shape_1_" sketch:type="MSShapeGroup" fill="none" stroke="#6B6C6E" stroke-width="2" d="M48.9,22l4.2,2.5
			c0.9,0.9,0.9,2.4,0,3.3L28.5,44c-0.9,0.9-2.4,0.9-3.3,0L0.6,27.8c-0.9-0.9-0.9-2.4,0-3.3L4.8,22"/>
		<path id="Shape" sketch:type="MSShapeGroup" fill="none" stroke="#6B6C6E" stroke-width="2" d="M53.1,15.7c0.9,0.9,0.9,2.4,0,3.3
			L28.5,35.2c-0.9,0.9-2.4,0.9-3.3,0L0.6,19c-0.9-0.9-0.9-2.4,0-3.3L25.2,1.1c0.9-0.9,2.4-0.9,3.3,0L53.1,15.7L53.1,15.7z"/>
	</g>
</g>
</svg>
