<?xml version="1.0" ?><!DOCTYPE svg  PUBLIC '-//W3C//DTD SVG 1.1//EN'  'http://www.w3.org/Graphics/SVG/1.1/DTD/svg11.dtd'><svg height="100%" style="fill-rule:evenodd;clip-rule:evenodd;stroke-linejoin:round;stroke-miterlimit:2;" version="1.1" viewBox="0 0 64 64" width="100%" xml:space="preserve" xmlns="http://www.w3.org/2000/svg" xmlns:serif="http://www.serif.com/" xmlns:xlink="http://www.w3.org/1999/xlink"><g transform="matrix(1,0,0,1,-240,-240)"><g id="stack-overflow-stackoverflow-apps-platform" transform="matrix(1,0,0,1,240,240)"><rect height="64" style="fill:none;" width="64" x="0" y="0"/><g transform="matrix(1,0,0,1,-240,-240)"><path d="M251,300C250.735,300 250.48,299.895 250.293,299.707C250.105,299.52 250,299.265 250,299C250,295.586 250,284.414 250,281C250,280.735 250.105,280.48 250.293,280.293C250.48,280.105 250.735,280 251,280C251.871,280 253.129,280 254,280C254.265,280 254.52,280.105 254.707,280.293C254.895,280.48 255,280.735 255,281C255,283.727 255,291.273 255,294C255,294.552 255.448,295 256,295C260.976,295 283.024,295 288,295C288.552,295 289,294.552 289,294C289,291.273 289,283.727 289,281C289,280.735 289.105,280.48 289.293,280.293C289.48,280.105 289.735,280 290,280C290.871,280 292.129,280 293,280C293.265,280 293.52,280.105 293.707,280.293C293.895,280.48 294,280.735 294,281C294,284.414 294,295.586 294,299C294,299.265 293.895,299.52 293.707,299.707C293.52,299.895 293.265,300 293,300C287.101,300 256.899,300 251,300Z" style="fill:rgb(193,213,228);"/></g><g transform="matrix(1,0,0,1,-240,-240)"><path d="M253,280C252.735,280 252.48,280.105 252.293,280.293C252.105,280.48 252,280.735 252,281C252,284.414 252,295.586 252,299C252,299.265 252.105,299.52 252.293,299.707C252.48,299.895 252.735,300 253,300L293,300C287.101,300 256.899,300 251,300C250.735,300 250.48,299.895 250.293,299.707C250.105,299.52 250,299.265 250,299C250,295.586 250,284.414 250,281C250,280.735 250.105,280.48 250.293,280.293C250.48,280.105 250.735,280 251,280L253,280ZM292,280C291.735,280 291.48,280.105 291.293,280.293C291.105,280.48 291,280.735 291,281C291,283.727 291,291.273 291,294C291,294.552 290.552,295 290,295L288,295C288.552,295 289,294.552 289,294C289,291.273 289,283.727 289,281C289,280.735 289.105,280.48 289.293,280.293C289.48,280.105 289.735,280 290,280L292,280Z" style="fill:rgb(155,185,193);"/></g><g transform="matrix(1,0,0,1,-240,-240)"><path d="M251,300.5C256.899,300.5 287.101,300.5 293,300.5C293.398,300.5 293.779,300.342 294.061,300.061C294.342,299.779 294.5,299.398 294.5,299C294.5,295.586 294.5,284.414 294.5,281C294.5,280.602 294.342,280.221 294.061,279.939C293.779,279.658 293.398,279.5 293,279.5C292.129,279.5 290.871,279.5 290,279.5C289.602,279.5 289.221,279.658 288.939,279.939C288.658,280.221 288.5,280.602 288.5,281C288.5,283.727 288.5,291.273 288.5,294C288.5,294.276 288.276,294.5 288,294.5C283.024,294.5 260.976,294.5 256,294.5C255.724,294.5 255.5,294.276 255.5,294C255.5,291.273 255.5,283.727 255.5,281C255.5,280.602 255.342,280.221 255.061,279.939C254.779,279.658 254.398,279.5 254,279.5C253.129,279.5 251.871,279.5 251,279.5C250.602,279.5 250.221,279.658 249.939,279.939C249.658,280.221 249.5,280.602 249.5,281C249.5,284.414 249.5,295.586 249.5,299C249.5,299.398 249.658,299.779 249.939,300.061C250.221,300.342 250.602,300.5 251,300.5L251,300.5ZM251,299.5C250.867,299.5 250.74,299.447 250.646,299.354C250.553,299.26 250.5,299.133 250.5,299C250.5,295.586 250.5,284.414 250.5,281C250.5,280.867 250.553,280.74 250.646,280.646C250.74,280.553 250.867,280.5 251,280.5C251.871,280.5 253.129,280.5 254,280.5C254.133,280.5 254.26,280.553 254.354,280.646C254.447,280.74 254.5,280.867 254.5,281C254.5,283.727 254.5,291.273 254.5,294C254.5,294.828 255.172,295.5 256,295.5C260.976,295.5 283.024,295.5 288,295.5C288.828,295.5 289.5,294.828 289.5,294C289.5,291.273 289.5,283.727 289.5,281C289.5,280.867 289.553,280.74 289.646,280.646C289.74,280.553 289.867,280.5 290,280.5L293,280.5C293.133,280.5 293.26,280.553 293.354,280.646C293.447,280.74 293.5,280.867 293.5,281C293.5,284.414 293.5,295.586 293.5,299C293.5,299.133 293.447,299.26 293.354,299.354C293.26,299.447 293.133,299.5 293,299.5L251,299.5Z"/></g><g transform="matrix(-1.83697e-16,-1,1.2,-2.20436e-16,-316,300)"><path d="M255,280.833C255,280.612 254.895,280.4 254.707,280.244C254.52,280.088 254.265,280 254,280C253.129,280 251.871,280 251,280C250.735,280 250.48,280.088 250.293,280.244C250.105,280.4 250,280.612 250,280.833C250,284.087 250,295.913 250,299.167C250,299.388 250.105,299.6 250.293,299.756C250.48,299.912 250.735,300 251,300C251.871,300 253.129,300 254,300C254.265,300 254.52,299.912 254.707,299.756C254.895,299.6 255,299.388 255,299.167C255,295.913 255,284.087 255,280.833Z" style="fill:rgb(252,184,96);"/></g><g transform="matrix(-1.83697e-16,-1,1.2,-2.20436e-16,-316,300)"><path d="M255.5,280.833C255.5,280.502 255.342,280.184 255.061,279.949C254.779,279.715 254.398,279.583 254,279.583C253.129,279.583 251.871,279.583 251,279.583C250.602,279.583 250.221,279.715 249.939,279.949C249.658,280.184 249.5,280.502 249.5,280.833C249.5,284.087 249.5,295.913 249.5,299.167C249.5,299.498 249.658,299.816 249.939,300.051C250.221,300.285 250.602,300.417 251,300.417C251.871,300.417 253.129,300.417 254,300.417C254.398,300.417 254.779,300.285 255.061,300.051C255.342,299.816 255.5,299.498 255.5,299.167C255.5,295.913 255.5,284.087 255.5,280.833ZM254.5,280.833C254.5,284.087 254.5,295.913 254.5,299.167C254.5,299.277 254.447,299.383 254.354,299.461C254.26,299.539 254.133,299.583 254,299.583C253.129,299.583 251.871,299.583 251,299.583C250.867,299.583 250.74,299.539 250.646,299.461C250.553,299.383 250.5,299.277 250.5,299.167C250.5,295.913 250.5,284.087 250.5,280.833C250.5,280.723 250.553,280.617 250.646,280.539C250.74,280.461 250.867,280.417 251,280.417C251.871,280.417 253.129,280.417 254,280.417C254.133,280.417 254.26,280.461 254.354,280.539C254.447,280.617 254.5,280.723 254.5,280.833Z"/></g><g transform="matrix(0.791958,-0.610576,0.732691,0.950349,-364.483,-106.401)"><path d="M255,280.833C255,280.612 254.895,280.4 254.707,280.244C254.52,280.088 254.265,280 254,280C253.129,280 251.871,280 251,280C250.735,280 250.48,280.088 250.293,280.244C250.105,280.4 250,280.612 250,280.833C250,284.087 250,295.913 250,299.167C250,299.388 250.105,299.6 250.293,299.756C250.48,299.912 250.735,300 251,300C251.871,300 253.129,300 254,300C254.265,300 254.52,299.912 254.707,299.756C254.895,299.6 255,299.388 255,299.167C255,295.913 255,284.087 255,280.833Z" style="fill:rgb(252,184,96);"/></g><g transform="matrix(0.791958,-0.610576,0.732691,0.950349,-364.483,-106.401)"><path d="M255.5,280.833C255.5,280.502 255.342,280.184 255.061,279.949C254.779,279.715 254.398,279.583 254,279.583C253.129,279.583 251.871,279.583 251,279.583C250.602,279.583 250.221,279.715 249.939,279.949C249.658,280.184 249.5,280.502 249.5,280.833C249.5,284.087 249.5,295.913 249.5,299.167C249.5,299.498 249.658,299.816 249.939,300.051C250.221,300.285 250.602,300.417 251,300.417C251.871,300.417 253.129,300.417 254,300.417C254.398,300.417 254.779,300.285 255.061,300.051C255.342,299.816 255.5,299.498 255.5,299.167C255.5,295.913 255.5,284.087 255.5,280.833ZM254.5,280.833C254.5,284.087 254.5,295.913 254.5,299.167C254.5,299.277 254.447,299.383 254.354,299.461C254.26,299.539 254.133,299.583 254,299.583C253.129,299.583 251.871,299.583 251,299.583C250.867,299.583 250.74,299.539 250.646,299.461C250.553,299.383 250.5,299.277 250.5,299.167C250.5,295.913 250.5,284.087 250.5,280.833C250.5,280.723 250.553,280.617 250.646,280.539C250.74,280.461 250.867,280.417 251,280.417C251.871,280.417 253.129,280.417 254,280.417C254.133,280.417 254.26,280.461 254.354,280.539C254.447,280.617 254.5,280.723 254.5,280.833Z"/></g><g transform="matrix(0.631431,-0.775432,0.930518,0.757717,-388.079,-2.33013)"><path d="M255,280.833C255,280.612 254.895,280.4 254.707,280.244C254.52,280.088 254.265,280 254,280C253.129,280 251.871,280 251,280C250.735,280 250.48,280.088 250.293,280.244C250.105,280.4 250,280.612 250,280.833C250,284.087 250,295.913 250,299.167C250,299.388 250.105,299.6 250.293,299.756C250.48,299.912 250.735,300 251,300C251.871,300 253.129,300 254,300C254.265,300 254.52,299.912 254.707,299.756C254.895,299.6 255,299.388 255,299.167C255,295.913 255,284.087 255,280.833Z" style="fill:rgb(252,184,96);"/></g><g transform="matrix(0.631431,-0.775432,0.930518,0.757717,-388.079,-2.33013)"><path d="M255.5,280.833C255.5,280.502 255.342,280.184 255.061,279.949C254.779,279.715 254.398,279.583 254,279.583C253.129,279.583 251.871,279.583 251,279.583C250.602,279.583 250.221,279.715 249.939,279.949C249.658,280.184 249.5,280.502 249.5,280.833C249.5,284.087 249.5,295.913 249.5,299.167C249.5,299.498 249.658,299.816 249.939,300.051C250.221,300.285 250.602,300.417 251,300.417C251.871,300.417 253.129,300.417 254,300.417C254.398,300.417 254.779,300.285 255.061,300.051C255.342,299.816 255.5,299.498 255.5,299.167C255.5,295.913 255.5,284.087 255.5,280.833ZM254.5,280.833C254.5,284.087 254.5,295.913 254.5,299.167C254.5,299.277 254.447,299.383 254.354,299.461C254.26,299.539 254.133,299.583 254,299.583C253.129,299.583 251.871,299.583 251,299.583C250.867,299.583 250.74,299.539 250.646,299.461C250.553,299.383 250.5,299.277 250.5,299.167C250.5,295.913 250.5,284.087 250.5,280.833C250.5,280.723 250.553,280.617 250.646,280.539C250.74,280.461 250.867,280.417 251,280.417C251.871,280.417 253.129,280.417 254,280.417C254.133,280.417 254.26,280.461 254.354,280.539C254.447,280.617 254.5,280.723 254.5,280.833Z"/></g><g transform="matrix(0.43114,-0.902285,1.08274,0.517367,-386.852,107.614)"><path d="M255,280.833C255,280.612 254.895,280.4 254.707,280.244C254.52,280.088 254.265,280 254,280C253.129,280 251.871,280 251,280C250.735,280 250.48,280.088 250.293,280.244C250.105,280.4 250,280.612 250,280.833C250,284.087 250,295.913 250,299.167C250,299.388 250.105,299.6 250.293,299.756C250.48,299.912 250.735,300 251,300C251.871,300 253.129,300 254,300C254.265,300 254.52,299.912 254.707,299.756C254.895,299.6 255,299.388 255,299.167C255,295.913 255,284.087 255,280.833Z" style="fill:rgb(252,184,96);"/></g><g transform="matrix(0.43114,-0.902285,1.08274,0.517367,-386.852,107.614)"><path d="M255.5,280.833C255.5,280.502 255.342,280.184 255.061,279.949C254.779,279.715 254.398,279.583 254,279.583C253.129,279.583 251.871,279.583 251,279.583C250.602,279.583 250.221,279.715 249.939,279.949C249.658,280.184 249.5,280.502 249.5,280.833C249.5,284.087 249.5,295.913 249.5,299.167C249.5,299.498 249.658,299.816 249.939,300.051C250.221,300.285 250.602,300.417 251,300.417C251.871,300.417 253.129,300.417 254,300.417C254.398,300.417 254.779,300.285 255.061,300.051C255.342,299.816 255.5,299.498 255.5,299.167C255.5,295.913 255.5,284.087 255.5,280.833ZM254.5,280.833C254.5,284.087 254.5,295.913 254.5,299.167C254.5,299.277 254.447,299.383 254.354,299.461C254.26,299.539 254.133,299.583 254,299.583C253.129,299.583 251.871,299.583 251,299.583C250.867,299.583 250.74,299.539 250.646,299.461C250.553,299.383 250.5,299.277 250.5,299.167C250.5,295.913 250.5,284.087 250.5,280.833C250.5,280.723 250.553,280.617 250.646,280.539C250.74,280.461 250.867,280.417 251,280.417C251.871,280.417 253.129,280.417 254,280.417C254.133,280.417 254.26,280.461 254.354,280.539C254.447,280.617 254.5,280.723 254.5,280.833Z"/></g><g transform="matrix(0.215862,-0.976424,1.17171,0.259034,-361.334,210.077)"><path d="M255,280.833C255,280.612 254.895,280.4 254.707,280.244C254.52,280.088 254.265,280 254,280C253.129,280 251.871,280 251,280C250.735,280 250.48,280.088 250.293,280.244C250.105,280.4 250,280.612 250,280.833C250,284.087 250,295.913 250,299.167C250,299.388 250.105,299.6 250.293,299.756C250.48,299.912 250.735,300 251,300C251.871,300 253.129,300 254,300C254.265,300 254.52,299.912 254.707,299.756C254.895,299.6 255,299.388 255,299.167C255,295.913 255,284.087 255,280.833Z" style="fill:rgb(252,184,96);"/></g><g transform="matrix(0.215862,-0.976424,1.17171,0.259034,-361.334,210.077)"><path d="M255.5,280.833C255.5,280.502 255.342,280.184 255.061,279.949C254.779,279.715 254.398,279.583 254,279.583C253.129,279.583 251.871,279.583 251,279.583C250.602,279.583 250.221,279.715 249.939,279.949C249.658,280.184 249.5,280.502 249.5,280.833C249.5,284.087 249.5,295.913 249.5,299.167C249.5,299.498 249.658,299.816 249.939,300.051C250.221,300.285 250.602,300.417 251,300.417C251.871,300.417 253.129,300.417 254,300.417C254.398,300.417 254.779,300.285 255.061,300.051C255.342,299.816 255.5,299.498 255.5,299.167C255.5,295.913 255.5,284.087 255.5,280.833ZM254.5,280.833C254.5,284.087 254.5,295.913 254.5,299.167C254.5,299.277 254.447,299.383 254.354,299.461C254.26,299.539 254.133,299.583 254,299.583C253.129,299.583 251.871,299.583 251,299.583C250.867,299.583 250.74,299.539 250.646,299.461C250.553,299.383 250.5,299.277 250.5,299.167C250.5,295.913 250.5,284.087 250.5,280.833C250.5,280.723 250.553,280.617 250.646,280.539C250.74,280.461 250.867,280.417 251,280.417C251.871,280.417 253.129,280.417 254,280.417C254.133,280.417 254.26,280.461 254.354,280.539C254.447,280.617 254.5,280.723 254.5,280.833Z"/></g></g></g></svg>