
<svg class ="h-8" xmlns="http://www.w3.org/2000/svg" xmlns:xlink="http://www.w3.org/1999/xlink" version="1.1"  viewBox="0 0 640 480" xml:space="preserve">
<desc>Created with Fabric.js 3.6.6</desc>
<defs>
</defs>
<g transform="matrix(1 0 0 1 600 400)"  >
<g style=""   >
		<g transform="matrix(6.16 0 0 6.16 296.34 171.54)"  >
<path style="stroke: none; stroke-width: 1; stroke-dasharray: none; stroke-linecap: butt; stroke-dashoffset: 0; stroke-linejoin: miter; stroke-miterlimit: 4; fill: rgb(188,187,187); fill-rule: nonzero; opacity: 1;"  transform=" translate(-34.75, -71.15)" d="M 61.8 78.9 V 55.7 h 7.7 v 30.9 H 0 V 55.7 h 7.7 v 23.2 z" stroke-linecap="round" />
</g>
		<g transform="matrix(6.16 0 0 6.16 354.84 -47.68)"  >
<path style="stroke: none; stroke-width: 1; stroke-dasharray: none; stroke-linecap: butt; stroke-dashoffset: 0; stroke-linejoin: miter; stroke-miterlimit: 4; fill: rgb(244,128,35); fill-rule: nonzero; opacity: 1;"  transform=" translate(-44.25, -35.55)" d="M 16.2 53.5 L 54 61.4 l 1.6 -7.6 l -37.8 -7.9 z m 5 -18 l 35 16.3 l 3.2 -7 l -35 -16.4 z m 9.7 -17.2 L 60.6 43 l 4.9 -5.9 l -29.7 -24.7 z M 50.1 0 l -6.2 4.6 l 23 31 l 6.2 -4.6 z M 15.4 71.1 H 54 v -7.7 H 15.4 z" stroke-linecap="round" />
</g>
</g>
</g>
<g transform="matrix(1 0 0 1 600 400)"  >
<g style=""   >
		<g transform="matrix(6.16 0 0 6.16 296.34 171.54)"  >
<path style="stroke: none; stroke-width: 1; stroke-dasharray: none; stroke-linecap: butt; stroke-dashoffset: 0; stroke-linejoin: miter; stroke-miterlimit: 4; fill: rgb(188,187,187); fill-rule: nonzero; opacity: 1;"  transform=" translate(-34.75, -71.15)" d="M 61.8 78.9 V 55.7 h 7.7 v 30.9 H 0 V 55.7 h 7.7 v 23.2 z" stroke-linecap="round" />
</g>
		<g transform="matrix(6.16 0 0 6.16 354.84 -47.68)"  >
<path style="stroke: none; stroke-width: 1; stroke-dasharray: none; stroke-linecap: butt; stroke-dashoffset: 0; stroke-linejoin: miter; stroke-miterlimit: 4; fill: rgb(244,128,35); fill-rule: nonzero; opacity: 1;"  transform=" translate(-44.25, -35.55)" d="M 16.2 53.5 L 54 61.4 l 1.6 -7.6 l -37.8 -7.9 z m 5 -18 l 35 16.3 l 3.2 -7 l -35 -16.4 z m 9.7 -17.2 L 60.6 43 l 4.9 -5.9 l -29.7 -24.7 z M 50.1 0 l -6.2 4.6 l 23 31 l 6.2 -4.6 z M 15.4 71.1 H 54 v -7.7 H 15.4 z" stroke-linecap="round" />
</g>
</g>
</g>
<g transform="matrix(1 0 0 1 600 400)"  >
<g style=""   >
		<g transform="matrix(6.16 0 0 6.16 296.34 171.54)"  >
<path style="stroke: none; stroke-width: 1; stroke-dasharray: none; stroke-linecap: butt; stroke-dashoffset: 0; stroke-linejoin: miter; stroke-miterlimit: 4; fill: rgb(188,187,187); fill-rule: nonzero; opacity: 1;"  transform=" translate(-34.75, -71.15)" d="M 61.8 78.9 V 55.7 h 7.7 v 30.9 H 0 V 55.7 h 7.7 v 23.2 z" stroke-linecap="round" />
</g>
		<g transform="matrix(6.16 0 0 6.16 354.84 -47.68)"  >
<path style="stroke: none; stroke-width: 1; stroke-dasharray: none; stroke-linecap: butt; stroke-dashoffset: 0; stroke-linejoin: miter; stroke-miterlimit: 4; fill: rgb(244,128,35); fill-rule: nonzero; opacity: 1;"  transform=" translate(-44.25, -35.55)" d="M 16.2 53.5 L 54 61.4 l 1.6 -7.6 l -37.8 -7.9 z m 5 -18 l 35 16.3 l 3.2 -7 l -35 -16.4 z m 9.7 -17.2 L 60.6 43 l 4.9 -5.9 l -29.7 -24.7 z M 50.1 0 l -6.2 4.6 l 23 31 l 6.2 -4.6 z M 15.4 71.1 H 54 v -7.7 H 15.4 z" stroke-linecap="round" />
</g>
</g>
</g>
<g transform="matrix(1 0 0 1 600 400)"  >
<g style=""   >
		<g transform="matrix(6.16 0 0 6.16 296.34 171.54)"  >
<path style="stroke: none; stroke-width: 1; stroke-dasharray: none; stroke-linecap: butt; stroke-dashoffset: 0; stroke-linejoin: miter; stroke-miterlimit: 4; fill: rgb(188,187,187); fill-rule: nonzero; opacity: 1;"  transform=" translate(-34.75, -71.15)" d="M 61.8 78.9 V 55.7 h 7.7 v 30.9 H 0 V 55.7 h 7.7 v 23.2 z" stroke-linecap="round" />
</g>
		<g transform="matrix(6.16 0 0 6.16 354.84 -47.68)"  >
<path style="stroke: none; stroke-width: 1; stroke-dasharray: none; stroke-linecap: butt; stroke-dashoffset: 0; stroke-linejoin: miter; stroke-miterlimit: 4; fill: rgb(244,128,35); fill-rule: nonzero; opacity: 1;"  transform=" translate(-44.25, -35.55)" d="M 16.2 53.5 L 54 61.4 l 1.6 -7.6 l -37.8 -7.9 z m 5 -18 l 35 16.3 l 3.2 -7 l -35 -16.4 z m 9.7 -17.2 L 60.6 43 l 4.9 -5.9 l -29.7 -24.7 z M 50.1 0 l -6.2 4.6 l 23 31 l 6.2 -4.6 z M 15.4 71.1 H 54 v -7.7 H 15.4 z" stroke-linecap="round" />
</g>
</g>
</g>
<g transform="matrix(5.26 0 0 5.49 324.29 252.34)"  >
<linearGradient id="SVGID_4" gradientUnits="userSpaceOnUse" gradientTransform="matrix(1 0 0 1 1.01 0)"  x1="96.293934" y1="8.799998673438132" x2="22.587466" y2="71.19998926690853">
<stop offset="0%" style="stop-color:rgba(29, 213, 255, 1);"/>
<stop offset="100%" style="stop-color:rgba(78, 121, 214, 1);"/>
</linearGradient>
<path style="stroke: none; stroke-width: 1; stroke-dasharray: none; stroke-linecap: butt; stroke-dashoffset: 0; stroke-linejoin: miter; stroke-miterlimit: 4; fill: url(#SVGID_4); fill-rule: evenodd; opacity: 1;"  transform=" translate(-60.45, -40)" d="M 1.0086 23.3414 A 2.4077 2.4077 0 0 25.2902 v 0.03 c 0.0029 0.3178 0.0686 0.64 0.2043 0.9465 L 11.69 52.2882 c 0.5086 1.1534 1.8214 1.7179 3.0114 1.296 c 7.52 -2.6816 33.5615 -11.1654 50.4143 -6.5892 c 0 0 -16.9057 0.978 -32.1928 12.9658 c -0.8615 0.6772 -1.1486 1.8547 -0.7072 2.8555 c 1.2414 2.8042 3.7329 8.441 5.1429 11.6272 l 1.98 4.6446 c 0.4714 1.102 1.9771 1.2346 2.6414 0.2367 c 3.5671 -5.3717 9.5814 -8.0547 15.3586 -10.397 c 5.9185 -2.3978 12.0943 -4.187 18.3943 -5.2519 c 6.7128 -1.1347 13.5671 -1.4384 20.3514 -0.8382 c 1.13 0.0998 2.1786 -0.593 2.5157 -1.6737 l 5.1886 -16.5826 c 0.3057 -0.9808 -0.0457 -2.0528 -0.88 -2.6559 c -5.7857 -4.1912 -28.7043 -18.269 -69.0072 -12.6137 c 0 0 34.3915 -19.756 78.0529 1.946 c 1.3228 0.6586 2.92 -0.0328 3.3614 -1.4385 l 4.5743 -14.6238 a 2.419 2.419 0 0.11 -0.6829 v -0.0698 c -0.0129 -0.8326 -0.4586 -1.6224 -1.2157 -2.0515 C 113.3043 9.2907 94.7514 0 69.23 0 C 49.6686 -0.0014 26.0157 5.4558 1.0086 23.3414" stroke-linecap="round" />
</g>
</svg>