<svg width="210mm" height="297mm" viewBox="0 0 210 297" version="1.1" id="svg5" inkscape:version="1.1.2 (1:1.1+202205011109+08b2f3d93c)" sodipodi:docname="following2.svg" xmlns:inkscape="http://www.inkscape.org/namespaces/inkscape" xmlns:sodipodi="http://sodipodi.sourceforge.net/DTD/sodipodi-0.dtd" xmlns="http://www.w3.org/2000/svg" xmlns:svg="http://www.w3.org/2000/svg"> <sodipodi:namedview id="namedview7" pagecolor="#ffffff" bordercolor="#666666" borderopacity="1.0" inkscape:pageshadow="2" inkscape:pageopacity="0.0" inkscape:pagecheckerboard="0" inkscape:document-units="mm" showgrid="false" inkscape:zoom="0.60221661" inkscape:cx="396.0369" inkscape:cy="552.95718" inkscape:window-width="1920" inkscape:window-height="1022" inkscape:window-x="0" inkscape:window-y="27" inkscape:window-maximized="1" inkscape:current-layer="layer1" /> <defs id="defs2" /> <g inkscape:label="Layer 1" inkscape:groupmode="layer" id="layer1"> <path clip-rule="evenodd" d="m 166.14754,181.72922 c 0,9.34958 -7.5819,16.92963 -16.93334,16.92963 h -8.46693 c -9.3554,0 -16.93545,-7.58005 -16.93545,-16.92963 0,-2.07936 -0.10954,-4.12988 -0.27067,-6.16638 -0.0288,-0.34105 -0.0413,-0.68421 -0.0743,-1.02103 -0.18203,-1.93066 -0.44238,-3.84466 -0.76491,-5.73431 -0.0619,-0.36989 -0.13229,-0.72972 -0.19844,-1.09564 -0.35771,-1.90368 -0.76888,-3.78672 -1.26497,-5.64304 -0.0704,-0.27067 -0.15081,-0.52705 -0.22728,-0.79375 -0.53128,-1.91241 -1.11628,-3.80153 -1.79017,-5.65362 -0.008,-0.027 -0.0228,-0.0601 -0.0331,-0.0889 -0.67786,-1.86028 -1.45097,-3.67956 -2.27383,-5.46973 -0.11589,-0.26035 -0.22331,-0.52096 -0.34528,-0.77734 -0.80857,-1.70948 -1.6809,-3.37556 -2.60694,-5.01254 -0.16113,-0.28945 -0.32649,-0.57467 -0.49186,-0.86439 -0.95091,-1.62666 -1.95553,-3.22262 -3.01995,-4.7707 -0.14685,-0.21299 -0.29978,-0.42572 -0.4445,-0.63447 -1.10808,-1.57718 -2.2614,-3.11944 -3.48086,-4.6056 -0.0331,-0.0413 -0.0743,-0.0889 -0.10742,-0.1323 -1.22582,-1.48008 -2.51355,-2.90009 -3.8407,-4.28492 -0.21907,-0.23363 -0.43418,-0.46514 -0.66145,-0.69453 -1.29408,-1.31869 -2.646896,-2.58578 -4.038075,-3.80551 -0.251089,-0.2233 -0.507471,-0.44661 -0.759619,-0.65934 -1.424252,-1.21549 -2.876285,-2.38733 -4.385204,-3.49329 -0.214048,-0.15716 -0.437091,-0.30401 -0.651139,-0.46117 -1.571096,-1.13057 -3.169973,-2.218 -4.831821,-3.22871 -0.02778,-0.0145 -0.05159,-0.0331 -0.0807,-0.0516 -1.63724,-0.99643 -3.332161,-1.91215 -5.044544,-2.79057 -0.309033,-0.15716 -0.607748,-0.31829 -0.916781,-0.4691 -1.646502,-0.81227 -3.326871,-1.55258 -5.040577,-2.24711 -0.360627,-0.14684 -0.721519,-0.29342 -1.087173,-0.43206 -1.741488,-0.6739 -3.507846,-1.28985 -5.311511,-1.83568 -0.280193,-0.0847 -0.569383,-0.16113 -0.849577,-0.24183 -6.763279,-1.96585 -13.907293,-3.04271 -21.307425,-3.04271 -4.674658,0 -8.466666,3.78698 -8.466666,8.4627 v 8.46905 c 0,4.67386 3.792273,8.46693 8.466666,8.46693 4.647671,0 9.132359,0.67786 13.409084,1.846 1.310481,0.36168 2.596091,0.76888 3.863445,1.22978 0.07647,0.0228 0.142611,0.0579 0.214048,0.0807 6.270361,2.30293 11.951759,5.80443 16.78358,10.22429 0.208756,0.19421 0.427831,0.37624 0.63156,0.57468 0.759619,0.71728 1.490398,1.46129 2.202392,2.2262 0.313266,0.33682 0.626268,0.6739 0.930275,1.02103 0.635529,0.7112 1.243277,1.43245 1.836473,2.18281 0.351366,0.44662 0.688445,0.91149 1.02526,1.37266 0.532342,0.72575 1.072885,1.44304 1.566862,2.19128 0.360628,0.55192 0.678921,1.12024 1.019969,1.68063 0.664634,1.10173 1.290902,2.22197 1.870604,3.37556 0.426773,0.84534 0.853811,1.6891 1.234017,2.56328 0.265642,0.6014 0.48895,1.2237 0.730779,1.84177 0.318294,0.82073 0.631561,1.64121 0.906463,2.48258 0.208756,0.62627 0.3937,1.25677 0.574675,1.88939 0.256381,0.8972 0.48895,1.80684 0.697706,2.71833 0.137583,0.59955 0.274902,1.19671 0.388673,1.80869 0.195262,1.01706 0.337873,2.05052 0.470164,3.08002 0.06721,0.54768 0.151871,1.0832 0.204523,1.63301 0.09393,0.99853 0.113771,2.01347 0.151871,3.02445 0.06085,0.57891 0.08996,1.16364 0.08996,1.7571 0,9.34958 -7.579784,16.92962 -16.93545,16.92962 h -6.351059 -2.116666 c -9.350375,0 -16.931217,-7.58004 -16.931217,-16.92962 0,-4.67599 -3.792273,-8.46905 -8.467725,-8.46905 -4.674658,0 -8.466667,3.79306 -8.466667,8.46905 0,4.67386 3.792273,8.46269 8.466667,8.46269 2.341033,0 4.234392,1.8976 4.234392,4.2336 0,2.33998 -1.893359,4.23333 -4.234392,4.23333 -9.350641,-0.001 -16.930424,-7.5811 -16.930424,-16.93068 0,-9.35567 7.579783,-16.93598 16.930423,-16.93598 9.351433,0 16.936508,7.58005 16.936508,16.93598 0,4.67386 3.786717,8.4627 8.462434,8.4627 h 2.116666 6.351059 c 4.674658,0 8.467725,-3.78884 8.467725,-8.4627 0,-6.4143 -1.466586,-12.47087 -4.020609,-17.91997 -0.218016,-0.46513 -0.432064,-0.93425 -0.66966,-1.39515 -0.313267,-0.61172 -0.650081,-1.2155 -0.991129,-1.81292 -0.256382,-0.45085 -0.532342,-0.89324 -0.807244,-1.32927 -0.34634,-0.55404 -0.697706,-1.11416 -1.067594,-1.65153 -0.569383,-0.82074 -1.173162,-1.61846 -1.794139,-2.39765 -0.370946,-0.45482 -0.759619,-0.89086 -1.144059,-1.33324 -0.455877,-0.52096 -0.92075,-1.04378 -1.400439,-1.54199 -0.3937,-0.40323 -0.787665,-0.79825 -1.195917,-1.18666 -0.51779,-0.49821 -1.058333,-0.97366 -1.599935,-1.447 -0.34634,-0.29978 -0.688446,-0.60775 -1.043782,-0.89721 -0.902229,-0.7276 -1.827477,-1.43457 -2.786591,-2.08968 -0.280194,-0.19023 -0.574675,-0.35136 -0.858838,-0.53525 -0.745067,-0.47942 -1.50495,-0.95488 -2.283089,-1.39118 -0.398992,-0.2233 -0.801953,-0.43206 -1.206236,-0.64082 -0.735806,-0.38444 -1.490398,-0.7403 -2.250017,-1.08347 -0.37412,-0.16536 -0.740039,-0.34104 -1.119187,-0.49821 -1.125538,-0.45878 -2.269596,-0.88688 -3.4417,-1.25677 -0.14261,-0.0434 -0.289454,-0.0765 -0.436033,-0.11985 -1.0541,-0.31618 -2.132277,-0.59743 -3.218392,-0.82894 -0.404019,-0.0868 -0.821796,-0.16113 -1.234281,-0.2376 -0.88265,-0.16748 -1.779852,-0.29977 -2.682082,-0.40931 -0.389731,-0.0476 -0.768879,-0.095 -1.162843,-0.13229 -1.295929,-0.11774 -2.596092,-0.19844 -3.921125,-0.19844 -9.350111,-2.6e-4 -16.929894,-7.58243 -16.929894,-16.93624 v -8.46905 c 0,-9.3517 7.579783,-16.931746 16.930423,-16.931746 1.376627,0 2.738967,0.03916 4.101042,0.105304 0.493977,0.02276 0.987954,0.07038 1.486164,0.09922 0.906463,0.06191 1.812925,0.11774 2.709863,0.204523 0.470429,0.04763 0.930275,0.103452 1.395412,0.161131 0.897202,0.103452 1.79414,0.208757 2.682081,0.341048 0.531284,0.07646 1.058334,0.167482 1.585384,0.256382 0.754591,0.124089 1.499658,0.256381 2.250016,0.398991 0.602457,0.119856 1.195917,0.241829 1.789113,0.369888 0.778139,0.167481 1.55231,0.347398 2.316162,0.537633 0.512763,0.128058 1.021027,0.256381 1.53379,0.388673 0.754592,0.204523 1.50495,0.421743 2.25425,0.640823 0.541602,0.16113 1.091406,0.31829 1.633008,0.49001 0.692415,0.21695 1.367367,0.45481 2.055813,0.69664 0.593196,0.20453 1.190625,0.40296 1.77456,0.62627 0.583936,0.21908 1.167871,0.46091 1.746779,0.68845 0.631561,0.25215 1.272382,0.49424 1.89865,0.76491 0.541602,0.23151 1.063625,0.47942 1.599936,0.72152 1.343554,0.60775 2.667529,1.24857 3.976952,1.92246 0.408252,0.20876 0.821531,0.41328 1.224756,0.6305 0.688446,0.36989 1.362075,0.76068 2.035969,1.14935 0.437356,0.24606 0.883708,0.48789 1.315773,0.75036 0.697706,0.41751 1.384829,0.85778 2.073275,1.29593 0.375179,0.24183 0.755385,0.47334 1.129771,0.72152 0.66966,0.44026 1.329002,0.8972 1.979083,1.35599 0.418571,0.29554 0.840317,0.59319 1.257829,0.8972 0.598488,0.43815 1.191683,0.88265 1.775619,1.329 0.412485,0.31433 0.817561,0.63659 1.218411,0.95912 0.62415,0.50218 1.24433,1.00674 1.85631,1.52347 0.32253,0.2749 0.64082,0.55192 0.95912,0.83105 0.65722,0.57468 1.31471,1.14935 1.95553,1.74678 0.21484,0.19421 0.41328,0.39476 0.6223,0.5932 5.9862,5.67214 11.15616,12.2084 15.28419,19.41433 0.0516,0.0847 0.10133,0.17568 0.15081,0.26458 0.55192,0.96944 1.0832,1.95131 1.5957,2.94349 0.0661,0.12806 0.12806,0.25215 0.19421,0.38047 0.51673,1.01098 1.01705,2.02592 1.49251,3.0615 0.0206,0.0516 0.0455,0.10345 0.0704,0.15716 0.49821,1.08532 0.97764,2.17858 1.42822,3.28877 0,0.004 0,0.008 0.004,0.0185 2.32966,5.71976 4.05342,11.75173 5.09324,18.01919 0.75036,4.53125 1.16363,9.17786 1.16363,13.92634 0,4.67387 3.79095,8.4627 8.46667,8.4627 h 8.4664 c 4.67572,0 8.46455,-3.78883 8.46455,-8.4627 0,-6.85456 -0.65537,-13.55222 -1.85631,-20.05912 -0.0146,-0.0722 -0.0228,-0.14261 -0.0392,-0.21908 -0.29766,-1.58988 -0.6305,-3.17103 -0.99642,-4.73578 -0.0124,-0.0619 -0.0228,-0.11985 -0.0373,-0.17568 -0.3556,-1.50495 -0.74004,-3.00143 -1.15332,-4.48151 -0.0537,-0.19421 -0.10742,-0.38867 -0.16536,-0.58499 -0.42175,-1.47585 -0.8681,-2.92683 -1.34779,-4.38018 -0.0103,-0.0288 -0.0206,-0.0661 -0.0288,-0.0992 -3.62162,-10.89766 -8.89688,-21.03305 -15.53633,-30.12202 -0.0185,-0.0331 -0.0373,-0.0619 -0.0619,-0.091 -0.83105,-1.13506 -1.68883,-2.24499 -2.56328,-3.34672 -0.17357,-0.21695 -0.34105,-0.4445 -0.51673,-0.66357 -0.81015,-1.01097 -1.65153,-2.00316 -2.50111,-2.98503 -0.24395,-0.28099 -0.48789,-0.56012 -0.73184,-0.84137 -0.84746,-0.96335 -1.72799,-1.91215 -2.60853,-2.84851 -0.24394,-0.25638 -0.49,-0.51673 -0.7358,-0.77311 -0.8599,-0.89297 -1.73831,-1.76953 -2.6252,-2.62943 -0.33284,-0.31829 -0.66146,-0.63659 -0.99642,-0.95488 -0.87445,-0.82471 -1.7653,-1.64121 -2.66859,-2.443164 -0.32861,-0.293687 -0.66357,-0.578908 -0.99827,-0.868362 -0.89508,-0.779198 -1.80234,-1.548342 -2.72838,-2.29235 -0.42572,-0.34316 -0.85381,-0.673889 -1.28588,-1.01282 -0.86809,-0.678128 -1.74042,-1.366573 -2.63339,-2.021682 -0.44239,-0.322527 -0.89297,-0.634471 -1.34356,-0.959114 -0.92604,-0.659342 -1.85208,-1.322917 -2.79453,-1.955536 -0.20664,-0.136525 -0.40931,-0.264583 -0.61383,-0.398991 -2.39157,-1.575065 -4.84108,-3.06123 -7.35674,-4.450557 -0.13229,-0.07646 -0.26458,-0.157162 -0.39899,-0.229393 -0.75036,-0.407194 -1.518181,-0.791634 -2.2778,-1.186392 -0.783431,-0.407194 -1.561571,-0.816504 -2.354262,-1.200944 -0.745067,-0.363802 -1.509977,-0.706966 -2.264569,-1.052248 -0.768879,-0.351366 -1.52744,-0.702733 -2.306902,-1.039812 -0.820738,-0.3556 -1.646502,-0.684213 -2.477559,-1.021027 -0.787664,-0.318294 -1.565804,-0.630502 -2.363787,-0.930275 -0.759619,-0.285221 -1.528498,-0.556154 -2.29235,-0.820738 -0.897202,-0.314325 -1.799431,-0.6223 -2.705894,-0.915723 -0.725487,-0.233627 -1.461294,-0.460904 -2.197364,-0.679979 -0.91149,-0.274902 -1.827213,-0.531283 -2.748227,-0.777346 -0.792692,-0.214841 -1.585384,-0.423862 -2.383367,-0.618066 -0.886883,-0.216959 -1.779852,-0.417513 -2.677054,-0.61595 -0.816504,-0.182034 -1.627717,-0.357717 -2.453481,-0.518848 -0.935303,-0.179917 -1.884098,-0.351367 -2.828661,-0.506413 -0.768879,-0.134409 -1.53379,-0.2667 -2.311929,-0.380471 -1.120246,-0.161131 -2.25425,-0.293423 -3.383756,-0.427831 -0.617009,-0.07038 -1.220523,-0.150813 -1.837532,-0.21299 -1.271323,-0.12409 -2.557991,-0.21299 -3.839633,-0.293423 -0.531283,-0.03519 -1.053042,-0.08678 -1.589617,-0.109537 -0.417512,-0.01852 -0.840316,-0.01852 -1.262856,-0.03307 v -0.04762 c -1.067594,-0.01032 -2.131219,-0.417513 -2.947723,-1.234017 -1.651529,-1.651794 -1.651529,-4.334669 0,-5.986462 0.902229,-0.901171 2.107407,-1.262857 3.284538,-1.182423 C 115.49596,65.693546 166.14754,117.78286 166.14754,181.72922 Z M 34.909966,71.659107 c -2.335742,0 -4.2291,-1.897592 -4.2291,-4.233598 0,-2.339975 1.893358,-4.233333 4.2291,-4.233333 2.339975,0 4.234392,1.893358 4.234392,4.233333 0,2.336006 -1.894417,4.233598 -4.234392,4.233598 z" fill="#e67e22" fill-rule="evenodd" id="path824" style="stroke-width:0.264583;fill:#0ea5e9;fill-opacity:1" /> </g> </svg>